<svg width="24" height="28" viewBox="0 0 24 28" fill="none" xmlns="http://www.w3.org/2000/svg">
<g clip-path="url(#clip0_988_1825)">
<g filter="url(#filter0_d_988_1825)">
<path d="M21 20C21 20.2652 20.8946 20.5196 20.7071 20.7071C20.5196 20.8946 20.2652 21 20 21H4C3.73478 21 3.48043 20.8946 3.29289 20.7071C3.10536 20.5196 3 20.2652 3 20V9.49C2.99989 9.33761 3.03462 9.18721 3.10152 9.0503C3.16841 8.91338 3.26572 8.79356 3.386 8.7L11.386 2.478C11.5615 2.34144 11.7776 2.2673 12 2.2673C12.2224 2.2673 12.4385 2.34144 12.614 2.478L20.614 8.7C20.7343 8.79356 20.8316 8.91338 20.8985 9.0503C20.9654 9.18721 21.0001 9.33761 21 9.49V20ZM19 19V9.978L12 4.534L5 9.978V19H19ZM7 15H17V17H7V15Z" fill="#222222"/>
</g>
</g>
<defs>
<filter id="filter0_d_988_1825" x="-1" y="2.2673" width="26" height="26.7327" filterUnits="userSpaceOnUse" color-interpolation-filters="sRGB">
<feFlood flood-opacity="0" result="BackgroundImageFix"/>
<feColorMatrix in="SourceAlpha" type="matrix" values="0 0 0 0 0 0 0 0 0 0 0 0 0 0 0 0 0 0 127 0" result="hardAlpha"/>
<feOffset dy="4"/>
<feGaussianBlur stdDeviation="2"/>
<feComposite in2="hardAlpha" operator="out"/>
<feColorMatrix type="matrix" values="0 0 0 0 0 0 0 0 0 0 0 0 0 0 0 0 0 0 0.17 0"/>
<feBlend mode="normal" in2="BackgroundImageFix" result="effect1_dropShadow_988_1825"/>
<feBlend mode="normal" in="SourceGraphic" in2="effect1_dropShadow_988_1825" result="shape"/>
</filter>
<clipPath id="clip0_988_1825">
<rect width="24" height="28" fill="white"/>
</clipPath>
</defs>
</svg>
